<svg width="432" height="270" fill="none" xmlns="http://www.w3.org/2000/svg"><circle cx="188" cy="123" r="106" fill="#FFD43B"/><path opacity=".3" d="M165 206c58.542 0 106-47.458 106-106 0-23.403-7.585-45.035-20.429-62.571C276.901 56.715 294 87.861 294 123c0 58.542-47.458 106-106 106-35.139 0-66.285-17.098-85.571-43.429C119.965 198.416 141.597 206 165 206z" fill="#FAB005"/><path d="M175.828 113.828a3.997 3.997 0 0 0 0-5.656 3.997 3.997 0 0 0-5.656 0l-35 35a3.997 3.997 0 0 0 0 5.656 3.997 3.997 0 0 0 5.656 0l35-35zM192.328 113.172a3.997 3.997 0 0 1 0 5.656l-107.5 107.5a3.998 3.998 0 0 1-5.656 0 3.999 3.999 0 0 1 0-5.656l107.5-107.5a3.997 3.997 0 0 1 5.656 0zM182.828 146.172a3.997 3.997 0 0 1 0 5.656l-35 35a3.997 3.997 0 0 1-5.656 0 3.997 3.997 0 0 1 0-5.656l35-35a3.997 3.997 0 0 1 5.656 0z" fill="#fff"/><path d="M207.662 104.891l-8.766-8.594c-1.547-1.719-2.063-3.953-1.031-6.016 3.093-7.219 10.656-24.234 16.843-33.172 14.094-20.797 35.063-21.484 47.438-19.078 2.062.344 3.609 1.89 3.953 3.953 2.406 12.375 1.719 33.344-19.078 47.438-9.109 6.187-26.125 13.578-33.516 16.672-1.89.859-4.297.343-5.843-1.203z" fill="#193154"/><path d="M205.573 102.843l2.089 2.048c1.546 1.546 3.953 2.062 5.843 1.203 7.391-3.094 24.407-10.485 33.516-16.672 20.797-14.094 21.484-35.063 19.078-47.438-.344-2.062-1.891-3.61-3.953-3.953-4.79-.931-10.866-1.399-17.334-.417.691.106 1.36.224 2.006.349 2.062.344 3.609 1.89 3.953 3.953 2.406 12.375 1.719 33.344-19.078 47.438-6.745 4.58-17.823 9.821-26.12 13.489z" fill="#001D40"/><circle cx="245" cy="59" r="7" fill="#fff"/><path d="M213.161 59.344c-4.812 7.906-10.484 19.765-13.75 27.156h-16.328c-1.375 0-2.75-.688-3.437-2.063-.86-1.203-.86-2.921 0-4.124l9.109-14.954c2.234-3.609 6.187-6.015 10.484-6.015h13.922zm4.297 45.031c7.563-3.266 19.422-8.594 27.156-13.406v13.922a12.33 12.33 0 0 1-5.844 10.484l-14.953 9.109c-1.203.688-2.922.86-4.125 0a4.007 4.007 0 0 1-2.234-3.609v-16.5z" fill="#8991A6"/><g opacity=".5" fill="#515F7C"><path d="M199.411 86.5c3.266-7.39 8.938-19.25 13.75-27.156h-13.922c-.711 0-1.414.066-2.101.192-4.774 7.851-10.387 19.575-13.659 26.964h15.932zM228.614 99.37v5.677c0 4.297-2.235 8.25-5.844 10.484l-5.312 3.236v2.108c0 1.547.86 2.922 2.235 3.609 1.203.86 2.921.688 4.125 0l14.953-9.109a12.331 12.331 0 0 0 5.843-10.484V90.969c-4.492 2.795-10.375 5.764-16 8.402z"/></g><path d="M324.739 167.758V166c0-17.188 13.867-31.25 31.25-31.25 11.524 0 21.68 6.445 26.953 15.82 2.93-2.148 6.641-3.32 10.547-3.32 10.352 0 18.75 8.398 18.75 18.75 0 2.539-.586 4.688-1.367 6.836 11.524 2.344 20.117 12.5 20.117 24.414 0 13.867-11.328 25-25 25h-71.875a28.008 28.008 0 0 1-28.125-28.125c0-12.109 7.813-22.656 18.75-26.367zM30.74 62.758V61c0-17.188 13.866-31.25 31.25-31.25 11.523 0 21.679 6.445 26.952 15.82 2.93-2.148 6.641-3.32 10.547-3.32 10.352 0 18.75 8.398 18.75 18.75 0 2.54-.586 4.688-1.367 6.836 11.524 2.344 20.117 12.5 20.117 24.414 0 13.867-11.328 25-25 25H40.114A28.008 28.008 0 0 1 11.99 89.125c0-12.11 7.813-22.656 18.75-26.367z" fill="#F0F1F3"/></svg>